<?xml version="1.0" encoding="iso-8859-1"?>
<!-- Generator: Adobe Illustrator 19.0.0, SVG Export Plug-In . SVG Version: 6.00 Build 0)  -->
<svg version="1.1" id="Layer_1" xmlns="http://www.w3.org/2000/svg" xmlns:xlink="http://www.w3.org/1999/xlink" x="0px" y="0px"
	 viewBox="0 0 512 512" style="enable-background:new 0 0 512 512;" xml:space="preserve">
<polygon style="fill:#ECF0F1;" points="409.705,231.21 384.704,265.704 389.13,308.08 350.194,325.404 332.87,364.34 
	290.495,359.914 256,384.915 221.506,359.914 179.13,364.339 161.806,325.403 122.871,308.08 127.296,265.704 102.296,231.21 
	127.296,196.716 122.871,154.339 161.806,137.015 179.131,98.081 221.506,102.506 256,77.506 290.495,102.506 332.87,98.081 
	350.194,137.016 389.13,154.341 384.704,196.716 "/>
<circle style="fill:#FFBAA8;" cx="256" cy="231.213" r="99.908"/>
<g>
	<path style="fill:#0BBBDA;" d="M435.875,447.421l3.781,46.337c-19.633-8.802-24.357-1.937-39.574-17.153
		c-15.217-15.217-3.627-26.806-18.844-42.023c-15.207-15.217-26.806-3.627-42.023-18.834c-15.217-15.217-3.617-26.816-18.834-42.033
		c-10.8-10.8-23.845-7.101-33.661-11.067l3.771-2.736l42.381,4.427L350.19,325.4l26.109-11.62c0,0,0,0,0.01,0
		c0.656,0.615,1.332,1.271,2.029,1.967c15.217,15.217,3.627,26.806,18.844,42.023c15.206,15.217,26.806,3.617,42.023,18.834
		c15.217,15.217,2.08,31.602,20.238,43.15c20.238,12.87,33.508,0.523,42.31,20.166L435.875,447.421z"/>
	<path style="fill:#0BBBDA;" d="M225.28,362.648c-9.817,3.966-22.861,0.266-33.661,11.067
		c-15.217,15.217-3.617,26.816-18.834,42.033c-15.217,15.207-26.816,3.617-42.023,18.834c-15.217,15.217-3.627,26.806-18.844,42.023
		c-15.217,15.217-19.941,8.351-39.574,17.153l3.781-46.337l-65.878-7.501c8.802-19.643,22.072-7.296,42.31-20.166
		c18.158-11.548,5.021-27.933,20.238-43.15c15.217-15.217,26.816-3.617,42.023-18.834c15.217-15.217,3.627-26.806,18.844-42.023
		c0.697-0.697,1.373-1.353,2.029-1.967l26.12,11.62l17.317,38.938l42.381-4.427L225.28,362.648z"/>
</g>
<g>
	<path style="fill:#231F20;" d="M366.155,231.21c0-60.739-49.416-110.155-110.155-110.155S145.845,170.471,145.845,231.21
		S195.261,341.365,256,341.365S366.155,291.949,366.155,231.21z M256,320.871c-49.44,0-89.661-40.221-89.661-89.661
		s40.221-89.661,89.661-89.661s89.661,40.221,89.661,89.661S305.44,320.871,256,320.871z"/>
	<path style="fill:#231F20;" d="M282.642,199.445c5.658,0,10.247-4.589,10.247-10.247c0-5.658-4.589-10.247-10.247-10.247h-53.284
		c-5.658,0-10.247,4.589-10.247,10.247c0,5.658,4.589,10.247,10.247,10.247h16.395v63.531h-16.395
		c-5.658,0-10.247,4.589-10.247,10.247c0,5.658,4.589,10.247,10.247,10.247h53.284c5.658,0,10.247-4.589,10.247-10.247
		c0-5.658-4.589-10.247-10.247-10.247h-16.395v-63.531H282.642z"/>
	<path style="fill:#231F20;" d="M256,47.961c5.658,0,10.247-4.589,10.247-10.247V18.244c0-5.658-4.589-10.247-10.247-10.247
		c-5.658,0-10.247,4.589-10.247,10.247v19.469C245.753,43.372,250.341,47.961,256,47.961z"/>
	<path style="fill:#231F20;" d="M439.25,231.21c0,5.658,4.589,10.247,10.247,10.247h19.469c5.658,0,10.247-4.589,10.247-10.247
		c0-5.658-4.589-10.247-10.247-10.247h-19.469C443.838,220.963,439.25,225.551,439.25,231.21z"/>
	<path style="fill:#231F20;" d="M43.034,241.457h19.469c5.658,0,10.247-4.589,10.247-10.247c0-5.658-4.589-10.247-10.247-10.247
		H43.034c-5.658,0-10.247,4.589-10.247,10.247C32.787,236.869,37.375,241.457,43.034,241.457z"/>
	<path style="fill:#231F20;" d="M347.626,72.511c1.614,0.931,3.375,1.375,5.113,1.375c3.541,0,6.986-1.838,8.884-5.126l9.735-16.861
		c2.83-4.901,1.151-11.168-3.75-13.997c-4.902-2.83-11.168-1.15-13.997,3.75l-9.735,16.861
		C341.045,63.415,342.724,69.682,347.626,72.511z"/>
	<path style="fill:#231F20;" d="M66.443,133.601l16.861,9.735c1.614,0.931,3.375,1.375,5.113,1.375c3.541,0,6.986-1.838,8.884-5.126
		c2.83-4.901,1.151-11.168-3.75-13.997l-16.861-9.735c-4.902-2.83-11.169-1.15-13.997,3.75
		C59.862,124.504,61.54,130.771,66.443,133.601z"/>
	<path style="fill:#231F20;" d="M423.583,144.71c1.738,0,3.499-0.444,5.113-1.375l16.861-9.735c4.901-2.829,6.581-9.096,3.75-13.997
		c-2.829-4.9-9.093-6.58-13.997-3.75l-16.861,9.735c-4.901,2.829-6.581,9.096-3.75,13.997
		C416.598,142.872,420.041,144.71,423.583,144.71z"/>
	<path style="fill:#231F20;" d="M150.378,68.76c1.899,3.287,5.342,5.126,8.884,5.126c1.738,0,3.499-0.444,5.113-1.375
		c4.901-2.829,6.581-9.096,3.75-13.997l-9.735-16.861c-2.83-4.899-9.094-6.581-13.997-3.75c-4.901,2.829-6.581,9.096-3.75,13.997
		L150.378,68.76z"/>
	<path style="fill:#231F20;" d="M511.105,435.729c-7.403-16.521-18.863-17.893-28.071-18.995
		c-5.856-0.702-11.387-1.364-18.092-5.628c-5.203-3.309-5.782-6.177-6.687-13.983c-0.885-7.622-2.098-18.06-11.803-27.766
		c-10.055-10.054-19.39-11.314-26.89-12.325c-6.006-0.811-9.973-1.345-15.133-6.509c-5.163-5.163-5.7-9.132-6.514-15.139
		c-0.696-5.149-1.51-11.163-5.208-17.68l0.588-0.261c4.054-1.804,6.486-6.013,6.026-10.427l-4.019-38.474l22.698-31.318
		c2.601-3.587,2.601-8.438,0-12.026l-22.698-31.318l4.019-38.473c0.46-4.414-1.972-8.623-6.026-10.427l-35.339-15.725
		l-15.724-35.341c-1.804-4.054-5.997-6.484-10.427-6.026l-38.474,4.019l-31.318-22.698c-3.586-2.6-8.439-2.6-12.026,0
		l-31.318,22.698l-38.473-4.019c-4.413-0.456-8.623,1.972-10.427,6.026l-15.725,35.339l-35.339,15.724
		c-4.054,1.805-6.486,6.013-6.026,10.427l4.019,38.474L94,225.196c-2.601,3.587-2.601,8.438,0,12.026l22.698,31.318l-4.019,38.473
		c-0.46,4.414,1.972,8.623,6.026,10.427l0.588,0.262c-3.697,6.518-4.512,12.532-5.208,17.681c-0.814,6.007-1.351,9.975-6.516,15.142
		c-5.156,5.159-9.124,5.695-15.131,6.506c-7.5,1.011-16.835,2.272-26.89,12.325c-9.705,9.706-10.917,20.143-11.802,27.765
		c-0.907,7.807-1.485,10.675-6.688,13.984c-6.705,4.264-12.236,4.927-18.092,5.628c-9.207,1.102-20.667,2.474-28.071,18.995
		c-1.336,2.983-1.17,6.425,0.449,9.264c1.618,2.839,4.495,4.737,7.744,5.106l56.016,6.379l-2.974,36.444
		c-0.295,3.611,1.339,7.109,4.298,9.201c1.759,1.244,3.83,1.88,5.916,1.88c1.422,0,2.851-0.296,4.191-0.897
		c6.565-2.943,11.064-3.823,15.415-4.675c8.077-1.581,15.706-3.074,27.214-14.581c10.054-10.054,11.317-19.385,12.33-26.883
		c0.814-6.008,1.351-9.976,6.516-15.143c5.158-5.161,9.127-5.698,15.136-6.51c7.498-1.012,16.831-2.274,26.885-12.321
		c10.054-10.054,11.314-19.391,12.326-26.892c0.811-6.009,1.345-9.979,6.508-15.14c4.251-4.251,8.943-4.984,16.242-5.826
		c2.697-0.311,5.448-0.635,8.228-1.241l26.652,19.317c1.793,1.3,3.904,1.95,6.013,1.95c2.109,0,4.22-0.651,6.013-1.95l26.652-19.317
		c2.78,0.605,5.531,0.929,8.228,1.241c7.3,0.841,11.99,1.574,16.242,5.826c5.161,5.161,5.697,9.131,6.508,15.14
		c1.012,7.501,2.272,16.838,12.329,26.894c10.052,10.046,19.384,11.306,26.882,12.319c6.008,0.812,9.976,1.347,15.137,6.512
		c5.163,5.163,5.7,9.132,6.514,15.14c1.013,7.498,2.277,16.83,12.33,26.883c11.507,11.507,19.137,13.001,27.214,14.581
		c4.351,0.852,8.849,1.732,15.415,4.675c1.34,0.6,2.769,0.897,4.191,0.897c2.085,0,4.158-0.636,5.916-1.88
		c2.959-2.091,4.593-5.589,4.298-9.201l-2.974-36.444l56.016-6.379c3.248-0.369,6.126-2.267,7.744-5.106
		C512.275,442.154,512.441,438.713,511.105,435.729z M172.046,393.361c-0.811,6.009-1.345,9.979-6.505,15.138
		c-5.161,5.157-9.131,5.694-15.14,6.506c-7.501,1.013-16.837,2.276-26.885,12.33c-10.054,10.054-11.317,19.385-12.331,26.883
		c-0.813,6.008-1.35,9.976-6.513,15.14c-7.088,7.088-10.087,7.675-16.659,8.961c-1.308,0.256-2.7,0.529-4.199,0.862l2.524-30.927
		c0.45-5.514-3.558-10.389-9.054-11.014l-30.238-3.443c3.451-1.221,7.139-2.935,11.009-5.396
		c13.702-8.715,15.058-20.389,16.048-28.914c0.741-6.373,1.275-10.976,5.937-15.638c5.161-5.161,9.13-5.697,15.138-6.508
		c7.501-1.011,16.836-2.272,26.884-12.326c10.054-10.053,11.317-19.385,12.331-26.883c0.641-4.744,1.112-8.216,3.822-12.008
		l15.827,7.043l15.724,35.339c1.494,3.357,4.628,5.594,8.175,6.007l-0.009,0.004C173.649,381.482,172.783,387.907,172.046,393.361z
		 M256,372.259l-28.481-20.643c-1.756-1.273-3.862-1.95-6.013-1.95c-0.355,0-0.709,0.018-1.065,0.055l-34.974,3.653l-14.299-32.137
		c-1.031-2.315-2.881-4.165-5.196-5.196l-32.137-14.299l3.653-34.974c0.262-2.513-0.412-5.033-1.896-7.078l-20.643-28.481
		l20.643-28.481c1.483-2.044,2.157-4.565,1.896-7.078l-3.653-34.974l32.137-14.299c2.315-1.031,4.165-2.881,5.196-5.196
		l14.299-32.137l34.974,3.653c2.513,0.262,5.033-0.413,7.078-1.896L256,90.161l28.481,20.643c2.045,1.483,4.566,2.157,7.078,1.896
		l34.974-3.653l14.299,32.137c1.031,2.315,2.881,4.165,5.196,5.196l32.137,14.299l-3.653,34.974
		c-0.262,2.513,0.412,5.033,1.896,7.078l20.643,28.481l-20.643,28.481c-1.483,2.044-2.157,4.565-1.896,7.078l3.653,34.974
		l-32.137,14.299c-2.315,1.031-4.165,2.881-5.196,5.196l-14.299,32.137l-34.974-3.653c-2.515-0.261-5.033,0.413-7.078,1.896
		L256,372.259z M434.717,437.24c-5.496,0.625-9.504,5.501-9.054,11.014l2.524,30.927c-1.499-0.333-2.891-0.606-4.199-0.862
		c-6.571-1.286-9.571-1.873-16.659-8.961c-5.163-5.163-5.7-9.132-6.513-15.14c-1.014-7.498-2.278-16.83-12.329-26.88
		c-10.051-10.057-19.386-11.32-26.887-12.333c-6.009-0.812-9.978-1.347-15.137-6.504c-5.161-5.161-5.697-9.131-6.508-15.14
		c-0.737-5.454-1.603-11.879-5.887-18.845l-0.012-0.005c3.541-0.414,6.683-2.65,8.176-6.006l15.725-35.339l15.827-7.042
		c2.71,3.792,3.181,7.265,3.822,12.008c1.014,7.498,2.278,16.831,12.329,26.88c10.051,10.057,19.385,11.318,26.886,12.329
		c6.008,0.811,9.976,1.345,15.138,6.508c4.663,4.662,5.197,9.266,5.937,15.638c0.99,8.524,2.346,20.199,16.048,28.914
		c3.87,2.46,7.558,4.174,11.009,5.396L434.717,437.24z"/>
</g>
<g>
</g>
<g>
</g>
<g>
</g>
<g>
</g>
<g>
</g>
<g>
</g>
<g>
</g>
<g>
</g>
<g>
</g>
<g>
</g>
<g>
</g>
<g>
</g>
<g>
</g>
<g>
</g>
<g>
</g>
</svg>
